<mxfile host="app.diagrams.net" modified="2021-03-10T02:56:27.807Z" agent="5.0 (Windows NT 10.0; Win64; x64) AppleWebKit/537.36 (KHTML, like Gecko) Chrome/88.0.4324.190 Safari/537.36" etag="jBpVMyxlikYm-J2NvRjj" version="14.4.5" type="github">
  <diagram id="C5RBs43oDa-KdzZeNtuy" name="Page-1">
    <mxGraphModel dx="903" dy="575" grid="0" gridSize="10" guides="1" tooltips="1" connect="1" arrows="1" fold="1" page="1" pageScale="1" pageWidth="827" pageHeight="1169" math="0" shadow="0">
      <root>
        <mxCell id="WIyWlLk6GJQsqaUBKTNV-0" />
        <mxCell id="WIyWlLk6GJQsqaUBKTNV-1" parent="WIyWlLk6GJQsqaUBKTNV-0" />
        <mxCell id="WIyWlLk6GJQsqaUBKTNV-2" value="" style="rounded=0;html=1;jettySize=auto;orthogonalLoop=1;fontSize=11;endArrow=block;endFill=0;endSize=8;strokeWidth=1;shadow=0;labelBackgroundColor=none;edgeStyle=orthogonalEdgeStyle;" parent="WIyWlLk6GJQsqaUBKTNV-1" source="WIyWlLk6GJQsqaUBKTNV-3" target="WIyWlLk6GJQsqaUBKTNV-6" edge="1">
          <mxGeometry relative="1" as="geometry" />
        </mxCell>
        <mxCell id="WIyWlLk6GJQsqaUBKTNV-3" value="Lamp doesn&#39;t work" style="rounded=1;whiteSpace=wrap;html=1;fontSize=12;glass=0;strokeWidth=1;shadow=0;" parent="WIyWlLk6GJQsqaUBKTNV-1" vertex="1">
          <mxGeometry x="181" y="90" width="120" height="40" as="geometry" />
        </mxCell>
        <mxCell id="WIyWlLk6GJQsqaUBKTNV-4" value="Yes" style="rounded=0;html=1;jettySize=auto;orthogonalLoop=1;fontSize=11;endArrow=block;endFill=0;endSize=8;strokeWidth=1;shadow=0;labelBackgroundColor=none;edgeStyle=orthogonalEdgeStyle;" parent="WIyWlLk6GJQsqaUBKTNV-1" source="WIyWlLk6GJQsqaUBKTNV-6" target="WIyWlLk6GJQsqaUBKTNV-10" edge="1">
          <mxGeometry y="20" relative="1" as="geometry">
            <mxPoint as="offset" />
          </mxGeometry>
        </mxCell>
        <mxCell id="WIyWlLk6GJQsqaUBKTNV-5" value="No" style="edgeStyle=orthogonalEdgeStyle;rounded=0;html=1;jettySize=auto;orthogonalLoop=1;fontSize=11;endArrow=block;endFill=0;endSize=8;strokeWidth=1;shadow=0;labelBackgroundColor=none;" parent="WIyWlLk6GJQsqaUBKTNV-1" source="WIyWlLk6GJQsqaUBKTNV-6" target="WIyWlLk6GJQsqaUBKTNV-7" edge="1">
          <mxGeometry y="10" relative="1" as="geometry">
            <mxPoint as="offset" />
          </mxGeometry>
        </mxCell>
        <mxCell id="WIyWlLk6GJQsqaUBKTNV-6" value="Lamp&lt;br&gt;plugged in?" style="rhombus;whiteSpace=wrap;html=1;shadow=0;fontFamily=Helvetica;fontSize=12;align=center;strokeWidth=1;spacing=6;spacingTop=-4;" parent="WIyWlLk6GJQsqaUBKTNV-1" vertex="1">
          <mxGeometry x="191" y="180" width="100" height="80" as="geometry" />
        </mxCell>
        <mxCell id="WIyWlLk6GJQsqaUBKTNV-7" value="Plug in lamp" style="rounded=1;whiteSpace=wrap;html=1;fontSize=12;glass=0;strokeWidth=1;shadow=0;" parent="WIyWlLk6GJQsqaUBKTNV-1" vertex="1">
          <mxGeometry x="341" y="200" width="120" height="40" as="geometry" />
        </mxCell>
        <mxCell id="WIyWlLk6GJQsqaUBKTNV-8" value="No" style="rounded=0;html=1;jettySize=auto;orthogonalLoop=1;fontSize=11;endArrow=block;endFill=0;endSize=8;strokeWidth=1;shadow=0;labelBackgroundColor=none;edgeStyle=orthogonalEdgeStyle;" parent="WIyWlLk6GJQsqaUBKTNV-1" source="WIyWlLk6GJQsqaUBKTNV-10" target="WIyWlLk6GJQsqaUBKTNV-11" edge="1">
          <mxGeometry x="0.3333" y="20" relative="1" as="geometry">
            <mxPoint as="offset" />
          </mxGeometry>
        </mxCell>
        <mxCell id="WIyWlLk6GJQsqaUBKTNV-9" value="Yes" style="edgeStyle=orthogonalEdgeStyle;rounded=0;html=1;jettySize=auto;orthogonalLoop=1;fontSize=11;endArrow=block;endFill=0;endSize=8;strokeWidth=1;shadow=0;labelBackgroundColor=none;" parent="WIyWlLk6GJQsqaUBKTNV-1" source="WIyWlLk6GJQsqaUBKTNV-10" target="WIyWlLk6GJQsqaUBKTNV-12" edge="1">
          <mxGeometry y="10" relative="1" as="geometry">
            <mxPoint as="offset" />
          </mxGeometry>
        </mxCell>
        <mxCell id="WIyWlLk6GJQsqaUBKTNV-10" value="Bulb&lt;br&gt;burned out?" style="rhombus;whiteSpace=wrap;html=1;shadow=0;fontFamily=Helvetica;fontSize=12;align=center;strokeWidth=1;spacing=6;spacingTop=-4;" parent="WIyWlLk6GJQsqaUBKTNV-1" vertex="1">
          <mxGeometry x="191" y="300" width="100" height="80" as="geometry" />
        </mxCell>
        <mxCell id="WIyWlLk6GJQsqaUBKTNV-11" value="Repair Lamp" style="rounded=1;whiteSpace=wrap;html=1;fontSize=12;glass=0;strokeWidth=1;shadow=0;" parent="WIyWlLk6GJQsqaUBKTNV-1" vertex="1">
          <mxGeometry x="181" y="440" width="120" height="40" as="geometry" />
        </mxCell>
        <mxCell id="WIyWlLk6GJQsqaUBKTNV-12" value="Replace Bulb" style="rounded=1;whiteSpace=wrap;html=1;fontSize=12;glass=0;strokeWidth=1;shadow=0;" parent="WIyWlLk6GJQsqaUBKTNV-1" vertex="1">
          <mxGeometry x="341" y="320" width="120" height="40" as="geometry" />
        </mxCell>
        <mxCell id="07RU_dakuY-ybr0K6Tnr-0" value="" style="aspect=fixed;perimeter=ellipsePerimeter;html=1;align=center;shadow=0;dashed=0;spacingTop=3;image;image=img/lib/active_directory/user_accounts.svg;" vertex="1" parent="WIyWlLk6GJQsqaUBKTNV-1">
          <mxGeometry x="121" y="680" width="50" height="48.5" as="geometry" />
        </mxCell>
        <mxCell id="07RU_dakuY-ybr0K6Tnr-1" value="&lt;b&gt;用户&lt;/b&gt;" style="rounded=1;whiteSpace=wrap;html=1;fontSize=12;glass=0;strokeWidth=1;shadow=0;" vertex="1" parent="WIyWlLk6GJQsqaUBKTNV-1">
          <mxGeometry x="103.5" y="740" width="85" height="20" as="geometry" />
        </mxCell>
        <mxCell id="07RU_dakuY-ybr0K6Tnr-2" value="" style="endArrow=classic;html=1;" edge="1" parent="WIyWlLk6GJQsqaUBKTNV-1">
          <mxGeometry width="50" height="50" relative="1" as="geometry">
            <mxPoint x="188.5" y="696" as="sourcePoint" />
            <mxPoint x="251" y="696" as="targetPoint" />
          </mxGeometry>
        </mxCell>
        <mxCell id="07RU_dakuY-ybr0K6Tnr-3" value="" style="endArrow=classic;html=1;" edge="1" parent="WIyWlLk6GJQsqaUBKTNV-1">
          <mxGeometry width="50" height="50" relative="1" as="geometry">
            <mxPoint x="251" y="724" as="sourcePoint" />
            <mxPoint x="188.5" y="723.5" as="targetPoint" />
          </mxGeometry>
        </mxCell>
        <mxCell id="07RU_dakuY-ybr0K6Tnr-4" value="" style="aspect=fixed;perimeter=ellipsePerimeter;html=1;align=center;shadow=0;dashed=0;spacingTop=3;image;image=img/lib/active_directory/laptop_client.svg;" vertex="1" parent="WIyWlLk6GJQsqaUBKTNV-1">
          <mxGeometry x="276.5" y="661" width="63" height="70" as="geometry" />
        </mxCell>
        <mxCell id="07RU_dakuY-ybr0K6Tnr-5" value="&lt;b&gt;交通信息探索系统&lt;/b&gt;" style="rounded=1;whiteSpace=wrap;html=1;fontSize=12;glass=0;strokeWidth=1;shadow=0;" vertex="1" parent="WIyWlLk6GJQsqaUBKTNV-1">
          <mxGeometry x="261" y="732" width="94" height="30" as="geometry" />
        </mxCell>
        <mxCell id="07RU_dakuY-ybr0K6Tnr-6" value="" style="endArrow=classic;html=1;" edge="1" parent="WIyWlLk6GJQsqaUBKTNV-1">
          <mxGeometry width="50" height="50" relative="1" as="geometry">
            <mxPoint x="355" y="680" as="sourcePoint" />
            <mxPoint x="408" y="646" as="targetPoint" />
          </mxGeometry>
        </mxCell>
        <mxCell id="07RU_dakuY-ybr0K6Tnr-7" value="" style="endArrow=classic;html=1;" edge="1" parent="WIyWlLk6GJQsqaUBKTNV-1">
          <mxGeometry width="50" height="50" relative="1" as="geometry">
            <mxPoint x="414" y="664.25" as="sourcePoint" />
            <mxPoint x="361" y="695.75" as="targetPoint" />
          </mxGeometry>
        </mxCell>
        <mxCell id="07RU_dakuY-ybr0K6Tnr-9" value="" style="aspect=fixed;perimeter=ellipsePerimeter;html=1;align=center;shadow=0;dashed=0;spacingTop=3;image;image=img/lib/active_directory/databases.svg;" vertex="1" parent="WIyWlLk6GJQsqaUBKTNV-1">
          <mxGeometry x="424.82" y="728" width="51.02" height="50" as="geometry" />
        </mxCell>
        <mxCell id="07RU_dakuY-ybr0K6Tnr-10" value="" style="aspect=fixed;perimeter=ellipsePerimeter;html=1;align=center;shadow=0;dashed=0;spacingTop=3;image;image=img/lib/active_directory/workstation_client.svg;" vertex="1" parent="WIyWlLk6GJQsqaUBKTNV-1">
          <mxGeometry x="421" y="600" width="58.65" height="69" as="geometry" />
        </mxCell>
        <mxCell id="07RU_dakuY-ybr0K6Tnr-14" value="" style="endArrow=classic;html=1;" edge="1" parent="WIyWlLk6GJQsqaUBKTNV-1">
          <mxGeometry width="50" height="50" relative="1" as="geometry">
            <mxPoint x="372" y="709.25" as="sourcePoint" />
            <mxPoint x="421" y="745" as="targetPoint" />
          </mxGeometry>
        </mxCell>
        <mxCell id="07RU_dakuY-ybr0K6Tnr-15" value="" style="endArrow=classic;html=1;" edge="1" parent="WIyWlLk6GJQsqaUBKTNV-1">
          <mxGeometry width="50" height="50" relative="1" as="geometry">
            <mxPoint x="409" y="761" as="sourcePoint" />
            <mxPoint x="366" y="731" as="targetPoint" />
          </mxGeometry>
        </mxCell>
        <mxCell id="07RU_dakuY-ybr0K6Tnr-16" value="&lt;b&gt;实时计算&lt;/b&gt;" style="rounded=1;whiteSpace=wrap;html=1;fontSize=12;glass=0;strokeWidth=1;shadow=0;" vertex="1" parent="WIyWlLk6GJQsqaUBKTNV-1">
          <mxGeometry x="415.33" y="669" width="70" height="21" as="geometry" />
        </mxCell>
        <mxCell id="07RU_dakuY-ybr0K6Tnr-18" value="&lt;b&gt;离线存储&lt;/b&gt;" style="rounded=1;whiteSpace=wrap;html=1;fontSize=12;glass=0;strokeWidth=1;shadow=0;" vertex="1" parent="WIyWlLk6GJQsqaUBKTNV-1">
          <mxGeometry x="421" y="790" width="70" height="21" as="geometry" />
        </mxCell>
        <mxCell id="07RU_dakuY-ybr0K6Tnr-20" style="edgeStyle=orthogonalEdgeStyle;rounded=0;orthogonalLoop=1;jettySize=auto;html=1;entryX=0.5;entryY=0;entryDx=0;entryDy=0;" edge="1" parent="WIyWlLk6GJQsqaUBKTNV-1" source="07RU_dakuY-ybr0K6Tnr-19" target="07RU_dakuY-ybr0K6Tnr-21">
          <mxGeometry relative="1" as="geometry">
            <mxPoint x="321" y="931" as="targetPoint" />
          </mxGeometry>
        </mxCell>
        <mxCell id="07RU_dakuY-ybr0K6Tnr-19" value="右击上传数据按键" style="rounded=1;whiteSpace=wrap;html=1;fontSize=12;glass=0;strokeWidth=1;shadow=0;" vertex="1" parent="WIyWlLk6GJQsqaUBKTNV-1">
          <mxGeometry x="261" y="861" width="120" height="40" as="geometry" />
        </mxCell>
        <mxCell id="07RU_dakuY-ybr0K6Tnr-22" style="edgeStyle=orthogonalEdgeStyle;rounded=0;orthogonalLoop=1;jettySize=auto;html=1;" edge="1" parent="WIyWlLk6GJQsqaUBKTNV-1" source="07RU_dakuY-ybr0K6Tnr-21">
          <mxGeometry relative="1" as="geometry">
            <mxPoint x="321" y="1021" as="targetPoint" />
          </mxGeometry>
        </mxCell>
        <mxCell id="07RU_dakuY-ybr0K6Tnr-21" value="选择上传数据类型" style="rounded=0;whiteSpace=wrap;html=1;" vertex="1" parent="WIyWlLk6GJQsqaUBKTNV-1">
          <mxGeometry x="261" y="941" width="120" height="40" as="geometry" />
        </mxCell>
        <mxCell id="07RU_dakuY-ybr0K6Tnr-23" value="" style="endArrow=none;html=1;" edge="1" parent="WIyWlLk6GJQsqaUBKTNV-1">
          <mxGeometry width="50" height="50" relative="1" as="geometry">
            <mxPoint x="211" y="1021" as="sourcePoint" />
            <mxPoint x="461" y="1021" as="targetPoint" />
          </mxGeometry>
        </mxCell>
        <mxCell id="07RU_dakuY-ybr0K6Tnr-24" value="" style="endArrow=classic;html=1;entryX=0.5;entryY=0;entryDx=0;entryDy=0;" edge="1" parent="WIyWlLk6GJQsqaUBKTNV-1" target="07RU_dakuY-ybr0K6Tnr-29">
          <mxGeometry width="50" height="50" relative="1" as="geometry">
            <mxPoint x="211" y="1021" as="sourcePoint" />
            <mxPoint x="211" y="1071" as="targetPoint" />
          </mxGeometry>
        </mxCell>
        <mxCell id="07RU_dakuY-ybr0K6Tnr-25" value="" style="endArrow=classic;html=1;entryX=0.5;entryY=0;entryDx=0;entryDy=0;" edge="1" parent="WIyWlLk6GJQsqaUBKTNV-1" target="07RU_dakuY-ybr0K6Tnr-31">
          <mxGeometry width="50" height="50" relative="1" as="geometry">
            <mxPoint x="281.5" y="1021" as="sourcePoint" />
            <mxPoint x="281.5" y="1071" as="targetPoint" />
          </mxGeometry>
        </mxCell>
        <mxCell id="07RU_dakuY-ybr0K6Tnr-26" value="" style="endArrow=classic;html=1;entryX=0.5;entryY=0;entryDx=0;entryDy=0;" edge="1" parent="WIyWlLk6GJQsqaUBKTNV-1" target="07RU_dakuY-ybr0K6Tnr-32">
          <mxGeometry width="50" height="50" relative="1" as="geometry">
            <mxPoint x="361.00000000000006" y="1021" as="sourcePoint" />
            <mxPoint x="361.00000000000006" y="1071" as="targetPoint" />
          </mxGeometry>
        </mxCell>
        <mxCell id="07RU_dakuY-ybr0K6Tnr-27" value="" style="endArrow=classic;html=1;entryX=0.5;entryY=0;entryDx=0;entryDy=0;" edge="1" parent="WIyWlLk6GJQsqaUBKTNV-1" target="07RU_dakuY-ybr0K6Tnr-33">
          <mxGeometry width="50" height="50" relative="1" as="geometry">
            <mxPoint x="461" y="1021" as="sourcePoint" />
            <mxPoint x="430.65999999999997" y="1071" as="targetPoint" />
          </mxGeometry>
        </mxCell>
        <mxCell id="07RU_dakuY-ybr0K6Tnr-48" style="edgeStyle=orthogonalEdgeStyle;rounded=0;orthogonalLoop=1;jettySize=auto;html=1;entryX=0.5;entryY=0;entryDx=0;entryDy=0;" edge="1" parent="WIyWlLk6GJQsqaUBKTNV-1" source="07RU_dakuY-ybr0K6Tnr-29" target="07RU_dakuY-ybr0K6Tnr-39">
          <mxGeometry relative="1" as="geometry" />
        </mxCell>
        <mxCell id="07RU_dakuY-ybr0K6Tnr-29" value="NULL" style="rounded=0;whiteSpace=wrap;html=1;" vertex="1" parent="WIyWlLk6GJQsqaUBKTNV-1">
          <mxGeometry x="185" y="1081" width="52" height="30" as="geometry" />
        </mxCell>
        <mxCell id="07RU_dakuY-ybr0K6Tnr-47" style="edgeStyle=orthogonalEdgeStyle;rounded=0;orthogonalLoop=1;jettySize=auto;html=1;entryX=0.5;entryY=0;entryDx=0;entryDy=0;" edge="1" parent="WIyWlLk6GJQsqaUBKTNV-1" source="07RU_dakuY-ybr0K6Tnr-31" target="07RU_dakuY-ybr0K6Tnr-41">
          <mxGeometry relative="1" as="geometry" />
        </mxCell>
        <mxCell id="07RU_dakuY-ybr0K6Tnr-31" value="全数据集" style="rounded=0;whiteSpace=wrap;html=1;" vertex="1" parent="WIyWlLk6GJQsqaUBKTNV-1">
          <mxGeometry x="256" y="1081" width="52" height="30" as="geometry" />
        </mxCell>
        <mxCell id="07RU_dakuY-ybr0K6Tnr-46" style="edgeStyle=orthogonalEdgeStyle;rounded=0;orthogonalLoop=1;jettySize=auto;html=1;entryX=0.5;entryY=0;entryDx=0;entryDy=0;" edge="1" parent="WIyWlLk6GJQsqaUBKTNV-1" source="07RU_dakuY-ybr0K6Tnr-32" target="07RU_dakuY-ybr0K6Tnr-42">
          <mxGeometry relative="1" as="geometry" />
        </mxCell>
        <mxCell id="07RU_dakuY-ybr0K6Tnr-32" value="随机数据集" style="rounded=0;whiteSpace=wrap;html=1;" vertex="1" parent="WIyWlLk6GJQsqaUBKTNV-1">
          <mxGeometry x="330" y="1081" width="62" height="30" as="geometry" />
        </mxCell>
        <mxCell id="07RU_dakuY-ybr0K6Tnr-45" style="edgeStyle=orthogonalEdgeStyle;rounded=0;orthogonalLoop=1;jettySize=auto;html=1;entryX=0.5;entryY=0;entryDx=0;entryDy=0;" edge="1" parent="WIyWlLk6GJQsqaUBKTNV-1" source="07RU_dakuY-ybr0K6Tnr-33" target="07RU_dakuY-ybr0K6Tnr-43">
          <mxGeometry relative="1" as="geometry" />
        </mxCell>
        <mxCell id="07RU_dakuY-ybr0K6Tnr-33" value="核心筛选算法数据集" style="rounded=0;whiteSpace=wrap;html=1;" vertex="1" parent="WIyWlLk6GJQsqaUBKTNV-1">
          <mxGeometry x="411" y="1081" width="102" height="30" as="geometry" />
        </mxCell>
        <mxCell id="07RU_dakuY-ybr0K6Tnr-39" value="结束" style="rounded=1;whiteSpace=wrap;html=1;fontSize=12;glass=0;strokeWidth=1;shadow=0;" vertex="1" parent="WIyWlLk6GJQsqaUBKTNV-1">
          <mxGeometry x="185" y="1140" width="50" height="30" as="geometry" />
        </mxCell>
        <mxCell id="07RU_dakuY-ybr0K6Tnr-41" value="结束" style="rounded=1;whiteSpace=wrap;html=1;fontSize=12;glass=0;strokeWidth=1;shadow=0;" vertex="1" parent="WIyWlLk6GJQsqaUBKTNV-1">
          <mxGeometry x="258" y="1140" width="50" height="30" as="geometry" />
        </mxCell>
        <mxCell id="07RU_dakuY-ybr0K6Tnr-42" value="结束" style="rounded=1;whiteSpace=wrap;html=1;fontSize=12;glass=0;strokeWidth=1;shadow=0;" vertex="1" parent="WIyWlLk6GJQsqaUBKTNV-1">
          <mxGeometry x="336" y="1140" width="50" height="30" as="geometry" />
        </mxCell>
        <mxCell id="07RU_dakuY-ybr0K6Tnr-43" value="结束" style="rounded=1;whiteSpace=wrap;html=1;fontSize=12;glass=0;strokeWidth=1;shadow=0;" vertex="1" parent="WIyWlLk6GJQsqaUBKTNV-1">
          <mxGeometry x="437" y="1140" width="50" height="30" as="geometry" />
        </mxCell>
        <mxCell id="07RU_dakuY-ybr0K6Tnr-50" style="edgeStyle=orthogonalEdgeStyle;rounded=0;orthogonalLoop=1;jettySize=auto;html=1;entryX=0.5;entryY=0;entryDx=0;entryDy=0;" edge="1" parent="WIyWlLk6GJQsqaUBKTNV-1" source="07RU_dakuY-ybr0K6Tnr-51" target="07RU_dakuY-ybr0K6Tnr-71">
          <mxGeometry relative="1" as="geometry">
            <mxPoint x="324" y="1316" as="targetPoint" />
          </mxGeometry>
        </mxCell>
        <mxCell id="07RU_dakuY-ybr0K6Tnr-51" value="右击算法选择按键" style="rounded=1;whiteSpace=wrap;html=1;fontSize=12;glass=0;strokeWidth=1;shadow=0;" vertex="1" parent="WIyWlLk6GJQsqaUBKTNV-1">
          <mxGeometry x="264.5" y="1245" width="120" height="40" as="geometry" />
        </mxCell>
        <mxCell id="07RU_dakuY-ybr0K6Tnr-85" style="edgeStyle=orthogonalEdgeStyle;rounded=0;orthogonalLoop=1;jettySize=auto;html=1;entryX=0.5;entryY=0;entryDx=0;entryDy=0;" edge="1" parent="WIyWlLk6GJQsqaUBKTNV-1" source="07RU_dakuY-ybr0K6Tnr-53" target="07RU_dakuY-ybr0K6Tnr-60">
          <mxGeometry relative="1" as="geometry" />
        </mxCell>
        <mxCell id="07RU_dakuY-ybr0K6Tnr-53" value="选择算法参数" style="rounded=0;whiteSpace=wrap;html=1;" vertex="1" parent="WIyWlLk6GJQsqaUBKTNV-1">
          <mxGeometry x="264.5" y="1447" width="120" height="40" as="geometry" />
        </mxCell>
        <mxCell id="07RU_dakuY-ybr0K6Tnr-90" style="edgeStyle=orthogonalEdgeStyle;rounded=0;orthogonalLoop=1;jettySize=auto;html=1;entryX=0.5;entryY=0;entryDx=0;entryDy=0;" edge="1" parent="WIyWlLk6GJQsqaUBKTNV-1" source="07RU_dakuY-ybr0K6Tnr-60" target="07RU_dakuY-ybr0K6Tnr-87">
          <mxGeometry relative="1" as="geometry" />
        </mxCell>
        <mxCell id="07RU_dakuY-ybr0K6Tnr-60" value="选择可视化轨迹数目" style="rounded=0;whiteSpace=wrap;html=1;" vertex="1" parent="WIyWlLk6GJQsqaUBKTNV-1">
          <mxGeometry x="289.5" y="1513" width="70" height="30" as="geometry" />
        </mxCell>
        <mxCell id="07RU_dakuY-ybr0K6Tnr-102" style="edgeStyle=orthogonalEdgeStyle;rounded=0;orthogonalLoop=1;jettySize=auto;html=1;entryX=0.5;entryY=0;entryDx=0;entryDy=0;" edge="1" parent="WIyWlLk6GJQsqaUBKTNV-1" source="07RU_dakuY-ybr0K6Tnr-64" target="07RU_dakuY-ybr0K6Tnr-100">
          <mxGeometry relative="1" as="geometry" />
        </mxCell>
        <mxCell id="07RU_dakuY-ybr0K6Tnr-64" value="选择delta" style="rounded=0;whiteSpace=wrap;html=1;" vertex="1" parent="WIyWlLk6GJQsqaUBKTNV-1">
          <mxGeometry x="293" y="1688" width="62" height="30" as="geometry" />
        </mxCell>
        <mxCell id="07RU_dakuY-ybr0K6Tnr-73" style="edgeStyle=orthogonalEdgeStyle;rounded=0;orthogonalLoop=1;jettySize=auto;html=1;" edge="1" parent="WIyWlLk6GJQsqaUBKTNV-1" source="07RU_dakuY-ybr0K6Tnr-71">
          <mxGeometry relative="1" as="geometry">
            <mxPoint x="211" y="1364" as="targetPoint" />
          </mxGeometry>
        </mxCell>
        <mxCell id="07RU_dakuY-ybr0K6Tnr-86" style="edgeStyle=orthogonalEdgeStyle;rounded=0;orthogonalLoop=1;jettySize=auto;html=1;entryX=0.5;entryY=0;entryDx=0;entryDy=0;" edge="1" parent="WIyWlLk6GJQsqaUBKTNV-1" source="07RU_dakuY-ybr0K6Tnr-71" target="07RU_dakuY-ybr0K6Tnr-53">
          <mxGeometry relative="1" as="geometry" />
        </mxCell>
        <mxCell id="07RU_dakuY-ybr0K6Tnr-71" value="算法类型判断" style="rhombus;whiteSpace=wrap;html=1;" vertex="1" parent="WIyWlLk6GJQsqaUBKTNV-1">
          <mxGeometry x="284.5" y="1324" width="80" height="80" as="geometry" />
        </mxCell>
        <mxCell id="07RU_dakuY-ybr0K6Tnr-75" value="全数据集&lt;b&gt;&lt;font style=&quot;font-size: 14px&quot;&gt;/&lt;br&gt;&lt;/font&gt;&lt;/b&gt;空数据集" style="text;html=1;align=center;verticalAlign=middle;resizable=0;points=[];autosize=1;" vertex="1" parent="WIyWlLk6GJQsqaUBKTNV-1">
          <mxGeometry x="221" y="1324" width="62" height="33" as="geometry" />
        </mxCell>
        <mxCell id="07RU_dakuY-ybr0K6Tnr-83" style="edgeStyle=orthogonalEdgeStyle;rounded=0;orthogonalLoop=1;jettySize=auto;html=1;entryX=1;entryY=0.5;entryDx=0;entryDy=0;" edge="1" parent="WIyWlLk6GJQsqaUBKTNV-1" source="07RU_dakuY-ybr0K6Tnr-76" target="07RU_dakuY-ybr0K6Tnr-82">
          <mxGeometry relative="1" as="geometry" />
        </mxCell>
        <mxCell id="07RU_dakuY-ybr0K6Tnr-76" value="可视化展示" style="rounded=0;whiteSpace=wrap;html=1;" vertex="1" parent="WIyWlLk6GJQsqaUBKTNV-1">
          <mxGeometry x="155" y="1350" width="52" height="30" as="geometry" />
        </mxCell>
        <mxCell id="07RU_dakuY-ybr0K6Tnr-82" value="结束" style="rounded=1;whiteSpace=wrap;html=1;fontSize=12;glass=0;strokeWidth=1;shadow=0;" vertex="1" parent="WIyWlLk6GJQsqaUBKTNV-1">
          <mxGeometry x="78" y="1350" width="50" height="30" as="geometry" />
        </mxCell>
        <mxCell id="07RU_dakuY-ybr0K6Tnr-84" value="&lt;font&gt;核心算法数据集&lt;/font&gt;&lt;font style=&quot;font-weight: bold ; font-size: 14px&quot;&gt;/&lt;br&gt;&lt;/font&gt;随机数据集" style="text;html=1;align=center;verticalAlign=middle;resizable=0;points=[];autosize=1;" vertex="1" parent="WIyWlLk6GJQsqaUBKTNV-1">
          <mxGeometry x="326.82" y="1402" width="98" height="33" as="geometry" />
        </mxCell>
        <mxCell id="07RU_dakuY-ybr0K6Tnr-91" style="edgeStyle=orthogonalEdgeStyle;rounded=0;orthogonalLoop=1;jettySize=auto;html=1;" edge="1" parent="WIyWlLk6GJQsqaUBKTNV-1" source="07RU_dakuY-ybr0K6Tnr-87">
          <mxGeometry relative="1" as="geometry">
            <mxPoint x="216" y="1611" as="targetPoint" />
          </mxGeometry>
        </mxCell>
        <mxCell id="07RU_dakuY-ybr0K6Tnr-97" style="edgeStyle=orthogonalEdgeStyle;rounded=0;orthogonalLoop=1;jettySize=auto;html=1;entryX=0.5;entryY=0;entryDx=0;entryDy=0;" edge="1" parent="WIyWlLk6GJQsqaUBKTNV-1" source="07RU_dakuY-ybr0K6Tnr-87" target="07RU_dakuY-ybr0K6Tnr-64">
          <mxGeometry relative="1" as="geometry" />
        </mxCell>
        <mxCell id="07RU_dakuY-ybr0K6Tnr-87" value="算法类型判断" style="rhombus;whiteSpace=wrap;html=1;" vertex="1" parent="WIyWlLk6GJQsqaUBKTNV-1">
          <mxGeometry x="284.5" y="1571" width="80" height="80" as="geometry" />
        </mxCell>
        <mxCell id="07RU_dakuY-ybr0K6Tnr-93" style="edgeStyle=orthogonalEdgeStyle;rounded=0;orthogonalLoop=1;jettySize=auto;html=1;entryX=1;entryY=0.5;entryDx=0;entryDy=0;" edge="1" parent="WIyWlLk6GJQsqaUBKTNV-1" source="07RU_dakuY-ybr0K6Tnr-94" target="07RU_dakuY-ybr0K6Tnr-95">
          <mxGeometry relative="1" as="geometry" />
        </mxCell>
        <mxCell id="07RU_dakuY-ybr0K6Tnr-94" value="可视化展示" style="rounded=0;whiteSpace=wrap;html=1;" vertex="1" parent="WIyWlLk6GJQsqaUBKTNV-1">
          <mxGeometry x="162" y="1596" width="52" height="30" as="geometry" />
        </mxCell>
        <mxCell id="07RU_dakuY-ybr0K6Tnr-95" value="结束" style="rounded=1;whiteSpace=wrap;html=1;fontSize=12;glass=0;strokeWidth=1;shadow=0;" vertex="1" parent="WIyWlLk6GJQsqaUBKTNV-1">
          <mxGeometry x="85" y="1596" width="50" height="30" as="geometry" />
        </mxCell>
        <mxCell id="07RU_dakuY-ybr0K6Tnr-96" value="随机数据集" style="text;html=1;align=center;verticalAlign=middle;resizable=0;points=[];autosize=1;" vertex="1" parent="WIyWlLk6GJQsqaUBKTNV-1">
          <mxGeometry x="219.5" y="1585" width="70" height="18" as="geometry" />
        </mxCell>
        <mxCell id="07RU_dakuY-ybr0K6Tnr-98" value="核心算法数据集" style="text;html=1;align=center;verticalAlign=middle;resizable=0;points=[];autosize=1;" vertex="1" parent="WIyWlLk6GJQsqaUBKTNV-1">
          <mxGeometry x="326.82" y="1654" width="94" height="18" as="geometry" />
        </mxCell>
        <mxCell id="07RU_dakuY-ybr0K6Tnr-103" style="edgeStyle=orthogonalEdgeStyle;rounded=0;orthogonalLoop=1;jettySize=auto;html=1;entryX=0.5;entryY=0;entryDx=0;entryDy=0;" edge="1" parent="WIyWlLk6GJQsqaUBKTNV-1" source="07RU_dakuY-ybr0K6Tnr-100" target="07RU_dakuY-ybr0K6Tnr-101">
          <mxGeometry relative="1" as="geometry" />
        </mxCell>
        <mxCell id="07RU_dakuY-ybr0K6Tnr-100" value="可视化展示" style="rounded=0;whiteSpace=wrap;html=1;" vertex="1" parent="WIyWlLk6GJQsqaUBKTNV-1">
          <mxGeometry x="298" y="1738" width="52" height="30" as="geometry" />
        </mxCell>
        <mxCell id="07RU_dakuY-ybr0K6Tnr-101" value="结束" style="rounded=1;whiteSpace=wrap;html=1;fontSize=12;glass=0;strokeWidth=1;shadow=0;" vertex="1" parent="WIyWlLk6GJQsqaUBKTNV-1">
          <mxGeometry x="299" y="1793" width="50" height="30" as="geometry" />
        </mxCell>
        <mxCell id="07RU_dakuY-ybr0K6Tnr-135" style="edgeStyle=orthogonalEdgeStyle;rounded=0;orthogonalLoop=1;jettySize=auto;html=1;entryX=0.5;entryY=0;entryDx=0;entryDy=0;" edge="1" parent="WIyWlLk6GJQsqaUBKTNV-1" source="07RU_dakuY-ybr0K6Tnr-106" target="07RU_dakuY-ybr0K6Tnr-133">
          <mxGeometry relative="1" as="geometry" />
        </mxCell>
        <mxCell id="07RU_dakuY-ybr0K6Tnr-106" value="左键点击所选择区域类型" style="rounded=1;whiteSpace=wrap;html=1;fontSize=12;glass=0;strokeWidth=1;shadow=0;" vertex="1" parent="WIyWlLk6GJQsqaUBKTNV-1">
          <mxGeometry x="512" y="1302" width="120" height="40" as="geometry" />
        </mxCell>
        <mxCell id="07RU_dakuY-ybr0K6Tnr-107" style="edgeStyle=orthogonalEdgeStyle;rounded=0;orthogonalLoop=1;jettySize=auto;html=1;entryX=0.5;entryY=0;entryDx=0;entryDy=0;" edge="1" parent="WIyWlLk6GJQsqaUBKTNV-1" source="07RU_dakuY-ybr0K6Tnr-108" target="07RU_dakuY-ybr0K6Tnr-130">
          <mxGeometry relative="1" as="geometry">
            <mxPoint x="571.75" y="1656" as="targetPoint" />
          </mxGeometry>
        </mxCell>
        <mxCell id="07RU_dakuY-ybr0K6Tnr-108" value="计算并提取区&lt;br&gt;域信息" style="rounded=0;whiteSpace=wrap;html=1;" vertex="1" parent="WIyWlLk6GJQsqaUBKTNV-1">
          <mxGeometry x="521" y="1578" width="101.5" height="40" as="geometry" />
        </mxCell>
        <mxCell id="07RU_dakuY-ybr0K6Tnr-113" style="edgeStyle=orthogonalEdgeStyle;rounded=0;orthogonalLoop=1;jettySize=auto;html=1;entryX=0;entryY=0.5;entryDx=0;entryDy=0;exitX=0;exitY=0.5;exitDx=0;exitDy=0;" edge="1" parent="WIyWlLk6GJQsqaUBKTNV-1" source="07RU_dakuY-ybr0K6Tnr-115" target="07RU_dakuY-ybr0K6Tnr-106">
          <mxGeometry relative="1" as="geometry">
            <mxPoint x="459" y="1595" as="targetPoint" />
            <Array as="points">
              <mxPoint x="455" y="1507" />
              <mxPoint x="455" y="1322" />
            </Array>
          </mxGeometry>
        </mxCell>
        <mxCell id="07RU_dakuY-ybr0K6Tnr-114" style="edgeStyle=orthogonalEdgeStyle;rounded=0;orthogonalLoop=1;jettySize=auto;html=1;entryX=0.5;entryY=0;entryDx=0;entryDy=0;" edge="1" parent="WIyWlLk6GJQsqaUBKTNV-1" source="07RU_dakuY-ybr0K6Tnr-115" target="07RU_dakuY-ybr0K6Tnr-108">
          <mxGeometry relative="1" as="geometry" />
        </mxCell>
        <mxCell id="07RU_dakuY-ybr0K6Tnr-115" value="增加新的一&lt;br&gt;组区域" style="rhombus;whiteSpace=wrap;html=1;" vertex="1" parent="WIyWlLk6GJQsqaUBKTNV-1">
          <mxGeometry x="531.75" y="1467" width="80" height="80" as="geometry" />
        </mxCell>
        <mxCell id="07RU_dakuY-ybr0K6Tnr-116" value="点击增加&lt;br&gt;区域按键" style="text;html=1;align=center;verticalAlign=middle;resizable=0;points=[];autosize=1;" vertex="1" parent="WIyWlLk6GJQsqaUBKTNV-1">
          <mxGeometry x="386" y="1368" width="58" height="32" as="geometry" />
        </mxCell>
        <mxCell id="07RU_dakuY-ybr0K6Tnr-117" style="edgeStyle=orthogonalEdgeStyle;rounded=0;orthogonalLoop=1;jettySize=auto;html=1;entryX=1;entryY=0.5;entryDx=0;entryDy=0;" edge="1" parent="WIyWlLk6GJQsqaUBKTNV-1" target="07RU_dakuY-ybr0K6Tnr-119">
          <mxGeometry relative="1" as="geometry">
            <mxPoint x="162" y="2129" as="sourcePoint" />
          </mxGeometry>
        </mxCell>
        <mxCell id="07RU_dakuY-ybr0K6Tnr-129" style="edgeStyle=orthogonalEdgeStyle;rounded=0;orthogonalLoop=1;jettySize=auto;html=1;entryX=0.5;entryY=0;entryDx=0;entryDy=0;" edge="1" parent="WIyWlLk6GJQsqaUBKTNV-1" source="07RU_dakuY-ybr0K6Tnr-130" target="07RU_dakuY-ybr0K6Tnr-131">
          <mxGeometry relative="1" as="geometry" />
        </mxCell>
        <mxCell id="07RU_dakuY-ybr0K6Tnr-130" value="可视化展示" style="rounded=0;whiteSpace=wrap;html=1;" vertex="1" parent="WIyWlLk6GJQsqaUBKTNV-1">
          <mxGeometry x="546.0699999999999" y="1662" width="52" height="30" as="geometry" />
        </mxCell>
        <mxCell id="07RU_dakuY-ybr0K6Tnr-131" value="结束" style="rounded=1;whiteSpace=wrap;html=1;fontSize=12;glass=0;strokeWidth=1;shadow=0;" vertex="1" parent="WIyWlLk6GJQsqaUBKTNV-1">
          <mxGeometry x="547.0699999999999" y="1717" width="50" height="30" as="geometry" />
        </mxCell>
        <mxCell id="07RU_dakuY-ybr0K6Tnr-136" style="edgeStyle=orthogonalEdgeStyle;rounded=0;orthogonalLoop=1;jettySize=auto;html=1;entryX=0.5;entryY=0;entryDx=0;entryDy=0;" edge="1" parent="WIyWlLk6GJQsqaUBKTNV-1" source="07RU_dakuY-ybr0K6Tnr-133" target="07RU_dakuY-ybr0K6Tnr-115">
          <mxGeometry relative="1" as="geometry" />
        </mxCell>
        <mxCell id="07RU_dakuY-ybr0K6Tnr-133" value="按压鼠标右键并拖拽开始选择区域" style="whiteSpace=wrap;html=1;" vertex="1" parent="WIyWlLk6GJQsqaUBKTNV-1">
          <mxGeometry x="513.5" y="1380" width="118" height="47" as="geometry" />
        </mxCell>
        <mxCell id="07RU_dakuY-ybr0K6Tnr-155" style="edgeStyle=orthogonalEdgeStyle;rounded=0;orthogonalLoop=1;jettySize=auto;html=1;entryX=0.5;entryY=0;entryDx=0;entryDy=0;" edge="1" parent="WIyWlLk6GJQsqaUBKTNV-1" source="07RU_dakuY-ybr0K6Tnr-141" target="07RU_dakuY-ybr0K6Tnr-152">
          <mxGeometry relative="1" as="geometry" />
        </mxCell>
        <mxCell id="07RU_dakuY-ybr0K6Tnr-141" value="右键点击区域拖动按键" style="rounded=1;whiteSpace=wrap;html=1;fontSize=12;glass=0;strokeWidth=1;shadow=0;" vertex="1" parent="WIyWlLk6GJQsqaUBKTNV-1">
          <mxGeometry x="328" y="1883" width="108" height="40" as="geometry" />
        </mxCell>
        <mxCell id="07RU_dakuY-ybr0K6Tnr-148" style="edgeStyle=orthogonalEdgeStyle;rounded=0;orthogonalLoop=1;jettySize=auto;html=1;entryX=0.5;entryY=0;entryDx=0;entryDy=0;" edge="1" parent="WIyWlLk6GJQsqaUBKTNV-1" target="07RU_dakuY-ybr0K6Tnr-150">
          <mxGeometry relative="1" as="geometry">
            <mxPoint x="382.0157142857144" y="2068" as="sourcePoint" />
          </mxGeometry>
        </mxCell>
        <mxCell id="07RU_dakuY-ybr0K6Tnr-150" value="结束" style="rounded=1;whiteSpace=wrap;html=1;fontSize=12;glass=0;strokeWidth=1;shadow=0;" vertex="1" parent="WIyWlLk6GJQsqaUBKTNV-1">
          <mxGeometry x="357" y="2093" width="50" height="30" as="geometry" />
        </mxCell>
        <mxCell id="07RU_dakuY-ybr0K6Tnr-154" style="edgeStyle=orthogonalEdgeStyle;rounded=0;orthogonalLoop=1;jettySize=auto;html=1;entryX=0.5;entryY=0;entryDx=0;entryDy=0;" edge="1" parent="WIyWlLk6GJQsqaUBKTNV-1" source="07RU_dakuY-ybr0K6Tnr-152" target="07RU_dakuY-ybr0K6Tnr-153">
          <mxGeometry relative="1" as="geometry" />
        </mxCell>
        <mxCell id="07RU_dakuY-ybr0K6Tnr-152" value="鼠标点击已选区域中心" style="whiteSpace=wrap;html=1;" vertex="1" parent="WIyWlLk6GJQsqaUBKTNV-1">
          <mxGeometry x="336.5" y="1950" width="91" height="48" as="geometry" />
        </mxCell>
        <mxCell id="07RU_dakuY-ybr0K6Tnr-153" value="移动区域至新的目标区域" style="whiteSpace=wrap;html=1;" vertex="1" parent="WIyWlLk6GJQsqaUBKTNV-1">
          <mxGeometry x="338" y="2026" width="89.5" height="40" as="geometry" />
        </mxCell>
        <mxCell id="07RU_dakuY-ybr0K6Tnr-156" style="edgeStyle=orthogonalEdgeStyle;rounded=0;orthogonalLoop=1;jettySize=auto;html=1;entryX=0.5;entryY=0;entryDx=0;entryDy=0;fontStyle=0" edge="1" parent="WIyWlLk6GJQsqaUBKTNV-1" source="07RU_dakuY-ybr0K6Tnr-157" target="07RU_dakuY-ybr0K6Tnr-161">
          <mxGeometry relative="1" as="geometry" />
        </mxCell>
        <mxCell id="07RU_dakuY-ybr0K6Tnr-157" value="右键点击删除区域按键" style="rounded=1;whiteSpace=wrap;html=1;fontSize=12;glass=0;strokeWidth=1;shadow=0;fontStyle=0" vertex="1" parent="WIyWlLk6GJQsqaUBKTNV-1">
          <mxGeometry x="522.25" y="1868" width="90.5" height="36" as="geometry" />
        </mxCell>
        <mxCell id="07RU_dakuY-ybr0K6Tnr-159" value="结束" style="rounded=1;whiteSpace=wrap;html=1;fontSize=12;glass=0;strokeWidth=1;shadow=0;fontStyle=0" vertex="1" parent="WIyWlLk6GJQsqaUBKTNV-1">
          <mxGeometry x="542.5" y="2010" width="50" height="30" as="geometry" />
        </mxCell>
        <mxCell id="07RU_dakuY-ybr0K6Tnr-163" style="edgeStyle=orthogonalEdgeStyle;rounded=0;orthogonalLoop=1;jettySize=auto;html=1;entryX=0.5;entryY=0;entryDx=0;entryDy=0;" edge="1" parent="WIyWlLk6GJQsqaUBKTNV-1" source="07RU_dakuY-ybr0K6Tnr-161" target="07RU_dakuY-ybr0K6Tnr-159">
          <mxGeometry relative="1" as="geometry" />
        </mxCell>
        <mxCell id="07RU_dakuY-ybr0K6Tnr-161" value="删除所有已选区域并" style="whiteSpace=wrap;html=1;fontStyle=0" vertex="1" parent="WIyWlLk6GJQsqaUBKTNV-1">
          <mxGeometry x="522" y="1934" width="91" height="48" as="geometry" />
        </mxCell>
        <mxCell id="07RU_dakuY-ybr0K6Tnr-164" style="edgeStyle=orthogonalEdgeStyle;rounded=0;orthogonalLoop=1;jettySize=auto;html=1;entryX=0.5;entryY=0;entryDx=0;entryDy=0;" edge="1" parent="WIyWlLk6GJQsqaUBKTNV-1" source="07RU_dakuY-ybr0K6Tnr-165" target="07RU_dakuY-ybr0K6Tnr-174">
          <mxGeometry relative="1" as="geometry">
            <mxPoint x="301.5" y="2230" as="targetPoint" />
          </mxGeometry>
        </mxCell>
        <mxCell id="07RU_dakuY-ybr0K6Tnr-165" value="左键点击选择主视图按键" style="rounded=1;whiteSpace=wrap;html=1;fontSize=12;glass=0;strokeWidth=1;shadow=0;" vertex="1" parent="WIyWlLk6GJQsqaUBKTNV-1">
          <mxGeometry x="242" y="2165" width="120" height="40" as="geometry" />
        </mxCell>
        <mxCell id="07RU_dakuY-ybr0K6Tnr-191" style="edgeStyle=orthogonalEdgeStyle;rounded=0;orthogonalLoop=1;jettySize=auto;html=1;entryX=1;entryY=0.5;entryDx=0;entryDy=0;" edge="1" parent="WIyWlLk6GJQsqaUBKTNV-1" source="07RU_dakuY-ybr0K6Tnr-174" target="07RU_dakuY-ybr0K6Tnr-177">
          <mxGeometry relative="1" as="geometry" />
        </mxCell>
        <mxCell id="07RU_dakuY-ybr0K6Tnr-195" style="edgeStyle=orthogonalEdgeStyle;rounded=0;orthogonalLoop=1;jettySize=auto;html=1;entryX=0.5;entryY=0;entryDx=0;entryDy=0;" edge="1" parent="WIyWlLk6GJQsqaUBKTNV-1" source="07RU_dakuY-ybr0K6Tnr-174" target="07RU_dakuY-ybr0K6Tnr-193">
          <mxGeometry relative="1" as="geometry" />
        </mxCell>
        <mxCell id="07RU_dakuY-ybr0K6Tnr-174" value="判断主视图" style="rhombus;whiteSpace=wrap;html=1;" vertex="1" parent="WIyWlLk6GJQsqaUBKTNV-1">
          <mxGeometry x="262" y="2238" width="80" height="80" as="geometry" />
        </mxCell>
        <mxCell id="07RU_dakuY-ybr0K6Tnr-175" value="当前视图为&lt;br&gt;主视图" style="text;html=1;align=center;verticalAlign=middle;resizable=0;points=[];autosize=1;" vertex="1" parent="WIyWlLk6GJQsqaUBKTNV-1">
          <mxGeometry x="200.5" y="2241" width="70" height="32" as="geometry" />
        </mxCell>
        <mxCell id="07RU_dakuY-ybr0K6Tnr-176" style="edgeStyle=orthogonalEdgeStyle;rounded=0;orthogonalLoop=1;jettySize=auto;html=1;entryX=1;entryY=0.5;entryDx=0;entryDy=0;" edge="1" parent="WIyWlLk6GJQsqaUBKTNV-1" source="07RU_dakuY-ybr0K6Tnr-177" target="07RU_dakuY-ybr0K6Tnr-178">
          <mxGeometry relative="1" as="geometry" />
        </mxCell>
        <mxCell id="07RU_dakuY-ybr0K6Tnr-177" value="取消主视图以及所有的联动" style="rounded=0;whiteSpace=wrap;html=1;" vertex="1" parent="WIyWlLk6GJQsqaUBKTNV-1">
          <mxGeometry x="119" y="2258" width="78" height="40" as="geometry" />
        </mxCell>
        <mxCell id="07RU_dakuY-ybr0K6Tnr-178" value="结束" style="rounded=1;whiteSpace=wrap;html=1;fontSize=12;glass=0;strokeWidth=1;shadow=0;" vertex="1" parent="WIyWlLk6GJQsqaUBKTNV-1">
          <mxGeometry x="35" y="2263" width="50" height="30" as="geometry" />
        </mxCell>
        <mxCell id="07RU_dakuY-ybr0K6Tnr-190" value="结束" style="rounded=1;whiteSpace=wrap;html=1;fontSize=12;glass=0;strokeWidth=1;shadow=0;" vertex="1" parent="WIyWlLk6GJQsqaUBKTNV-1">
          <mxGeometry x="277" y="2535" width="50" height="30" as="geometry" />
        </mxCell>
        <mxCell id="07RU_dakuY-ybr0K6Tnr-196" style="edgeStyle=orthogonalEdgeStyle;rounded=0;orthogonalLoop=1;jettySize=auto;html=1;entryX=0.5;entryY=0;entryDx=0;entryDy=0;" edge="1" parent="WIyWlLk6GJQsqaUBKTNV-1" source="07RU_dakuY-ybr0K6Tnr-193" target="07RU_dakuY-ybr0K6Tnr-198">
          <mxGeometry relative="1" as="geometry">
            <mxPoint x="302" y="2468.5714285714284" as="targetPoint" />
          </mxGeometry>
        </mxCell>
        <mxCell id="07RU_dakuY-ybr0K6Tnr-203" style="edgeStyle=orthogonalEdgeStyle;rounded=0;orthogonalLoop=1;jettySize=auto;html=1;entryX=0;entryY=0.5;entryDx=0;entryDy=0;" edge="1" parent="WIyWlLk6GJQsqaUBKTNV-1" source="07RU_dakuY-ybr0K6Tnr-193" target="07RU_dakuY-ybr0K6Tnr-207">
          <mxGeometry relative="1" as="geometry">
            <mxPoint x="389.5" y="2396" as="targetPoint" />
          </mxGeometry>
        </mxCell>
        <mxCell id="07RU_dakuY-ybr0K6Tnr-193" value="当前已存在&lt;br&gt;主视图" style="rhombus;whiteSpace=wrap;html=1;" vertex="1" parent="WIyWlLk6GJQsqaUBKTNV-1">
          <mxGeometry x="262" y="2356" width="80" height="80" as="geometry" />
        </mxCell>
        <mxCell id="07RU_dakuY-ybr0K6Tnr-197" value="存在" style="text;html=1;align=center;verticalAlign=middle;resizable=0;points=[];autosize=1;" vertex="1" parent="WIyWlLk6GJQsqaUBKTNV-1">
          <mxGeometry x="297.5" y="2439" width="34" height="18" as="geometry" />
        </mxCell>
        <mxCell id="07RU_dakuY-ybr0K6Tnr-202" style="edgeStyle=orthogonalEdgeStyle;rounded=0;orthogonalLoop=1;jettySize=auto;html=1;entryX=0.5;entryY=0;entryDx=0;entryDy=0;" edge="1" parent="WIyWlLk6GJQsqaUBKTNV-1" source="07RU_dakuY-ybr0K6Tnr-198" target="07RU_dakuY-ybr0K6Tnr-190">
          <mxGeometry relative="1" as="geometry" />
        </mxCell>
        <mxCell id="07RU_dakuY-ybr0K6Tnr-198" value="切换所选视图为主视图" style="whiteSpace=wrap;html=1;" vertex="1" parent="WIyWlLk6GJQsqaUBKTNV-1">
          <mxGeometry x="261.5" y="2469" width="81.5" height="38" as="geometry" />
        </mxCell>
        <mxCell id="07RU_dakuY-ybr0K6Tnr-204" value="不存在" style="text;html=1;align=center;verticalAlign=middle;resizable=0;points=[];autosize=1;" vertex="1" parent="WIyWlLk6GJQsqaUBKTNV-1">
          <mxGeometry x="336.5" y="2372" width="46" height="18" as="geometry" />
        </mxCell>
        <mxCell id="07RU_dakuY-ybr0K6Tnr-205" value="结束" style="rounded=1;whiteSpace=wrap;html=1;fontSize=12;glass=0;strokeWidth=1;shadow=0;" vertex="1" parent="WIyWlLk6GJQsqaUBKTNV-1">
          <mxGeometry x="502" y="2381" width="50" height="30" as="geometry" />
        </mxCell>
        <mxCell id="07RU_dakuY-ybr0K6Tnr-208" style="edgeStyle=orthogonalEdgeStyle;rounded=0;orthogonalLoop=1;jettySize=auto;html=1;entryX=0;entryY=0.5;entryDx=0;entryDy=0;" edge="1" parent="WIyWlLk6GJQsqaUBKTNV-1" source="07RU_dakuY-ybr0K6Tnr-207" target="07RU_dakuY-ybr0K6Tnr-205">
          <mxGeometry relative="1" as="geometry" />
        </mxCell>
        <mxCell id="07RU_dakuY-ybr0K6Tnr-207" value="选择所选视图为主视图" style="whiteSpace=wrap;html=1;" vertex="1" parent="WIyWlLk6GJQsqaUBKTNV-1">
          <mxGeometry x="390.5" y="2377" width="81.5" height="38" as="geometry" />
        </mxCell>
        <mxCell id="07RU_dakuY-ybr0K6Tnr-229" style="edgeStyle=orthogonalEdgeStyle;rounded=0;orthogonalLoop=1;jettySize=auto;html=1;entryX=0.5;entryY=0;entryDx=0;entryDy=0;" edge="1" parent="WIyWlLk6GJQsqaUBKTNV-1" source="07RU_dakuY-ybr0K6Tnr-210" target="07RU_dakuY-ybr0K6Tnr-221">
          <mxGeometry relative="1" as="geometry" />
        </mxCell>
        <mxCell id="07RU_dakuY-ybr0K6Tnr-210" value="左键点击联动按键" style="rounded=1;whiteSpace=wrap;html=1;fontSize=12;glass=0;strokeWidth=1;shadow=0;" vertex="1" parent="WIyWlLk6GJQsqaUBKTNV-1">
          <mxGeometry x="544.25" y="2215" width="120" height="40" as="geometry" />
        </mxCell>
        <mxCell id="07RU_dakuY-ybr0K6Tnr-218" value="结束" style="rounded=1;whiteSpace=wrap;html=1;fontSize=12;glass=0;strokeWidth=1;shadow=0;" vertex="1" parent="WIyWlLk6GJQsqaUBKTNV-1">
          <mxGeometry x="579" y="2474" width="50" height="30" as="geometry" />
        </mxCell>
        <mxCell id="07RU_dakuY-ybr0K6Tnr-219" style="edgeStyle=orthogonalEdgeStyle;rounded=0;orthogonalLoop=1;jettySize=auto;html=1;entryX=0.5;entryY=0;entryDx=0;entryDy=0;" edge="1" parent="WIyWlLk6GJQsqaUBKTNV-1" source="07RU_dakuY-ybr0K6Tnr-221" target="07RU_dakuY-ybr0K6Tnr-224">
          <mxGeometry relative="1" as="geometry">
            <mxPoint x="604" y="2407.5714285714284" as="targetPoint" />
          </mxGeometry>
        </mxCell>
        <mxCell id="07RU_dakuY-ybr0K6Tnr-220" style="edgeStyle=orthogonalEdgeStyle;rounded=0;orthogonalLoop=1;jettySize=auto;html=1;entryX=0;entryY=0.5;entryDx=0;entryDy=0;" edge="1" parent="WIyWlLk6GJQsqaUBKTNV-1" source="07RU_dakuY-ybr0K6Tnr-221" target="07RU_dakuY-ybr0K6Tnr-228">
          <mxGeometry relative="1" as="geometry">
            <mxPoint x="691.5" y="2335" as="targetPoint" />
          </mxGeometry>
        </mxCell>
        <mxCell id="07RU_dakuY-ybr0K6Tnr-221" value="当前已存在&lt;br&gt;主视图" style="rhombus;whiteSpace=wrap;html=1;" vertex="1" parent="WIyWlLk6GJQsqaUBKTNV-1">
          <mxGeometry x="564" y="2295" width="80" height="80" as="geometry" />
        </mxCell>
        <mxCell id="07RU_dakuY-ybr0K6Tnr-222" value="存在" style="text;html=1;align=center;verticalAlign=middle;resizable=0;points=[];autosize=1;" vertex="1" parent="WIyWlLk6GJQsqaUBKTNV-1">
          <mxGeometry x="599.5" y="2378" width="34" height="18" as="geometry" />
        </mxCell>
        <mxCell id="07RU_dakuY-ybr0K6Tnr-223" style="edgeStyle=orthogonalEdgeStyle;rounded=0;orthogonalLoop=1;jettySize=auto;html=1;entryX=0.5;entryY=0;entryDx=0;entryDy=0;" edge="1" parent="WIyWlLk6GJQsqaUBKTNV-1" source="07RU_dakuY-ybr0K6Tnr-224" target="07RU_dakuY-ybr0K6Tnr-218">
          <mxGeometry relative="1" as="geometry" />
        </mxCell>
        <mxCell id="07RU_dakuY-ybr0K6Tnr-224" value="跟随主视图进行联动" style="whiteSpace=wrap;html=1;" vertex="1" parent="WIyWlLk6GJQsqaUBKTNV-1">
          <mxGeometry x="563.5" y="2408" width="81.5" height="38" as="geometry" />
        </mxCell>
        <mxCell id="07RU_dakuY-ybr0K6Tnr-225" value="不存在" style="text;html=1;align=center;verticalAlign=middle;resizable=0;points=[];autosize=1;" vertex="1" parent="WIyWlLk6GJQsqaUBKTNV-1">
          <mxGeometry x="638.5" y="2311" width="46" height="18" as="geometry" />
        </mxCell>
        <mxCell id="07RU_dakuY-ybr0K6Tnr-226" value="结束" style="rounded=1;whiteSpace=wrap;html=1;fontSize=12;glass=0;strokeWidth=1;shadow=0;" vertex="1" parent="WIyWlLk6GJQsqaUBKTNV-1">
          <mxGeometry x="804" y="2320" width="50" height="30" as="geometry" />
        </mxCell>
        <mxCell id="07RU_dakuY-ybr0K6Tnr-227" style="edgeStyle=orthogonalEdgeStyle;rounded=0;orthogonalLoop=1;jettySize=auto;html=1;entryX=0;entryY=0.5;entryDx=0;entryDy=0;" edge="1" parent="WIyWlLk6GJQsqaUBKTNV-1" source="07RU_dakuY-ybr0K6Tnr-228" target="07RU_dakuY-ybr0K6Tnr-226">
          <mxGeometry relative="1" as="geometry" />
        </mxCell>
        <mxCell id="07RU_dakuY-ybr0K6Tnr-228" value="独立联动" style="whiteSpace=wrap;html=1;" vertex="1" parent="WIyWlLk6GJQsqaUBKTNV-1">
          <mxGeometry x="692.5" y="2316" width="81.5" height="38" as="geometry" />
        </mxCell>
        <mxCell id="07RU_dakuY-ybr0K6Tnr-230" style="edgeStyle=orthogonalEdgeStyle;rounded=0;orthogonalLoop=1;jettySize=auto;html=1;" edge="1" parent="WIyWlLk6GJQsqaUBKTNV-1" source="07RU_dakuY-ybr0K6Tnr-231" target="07RU_dakuY-ybr0K6Tnr-243">
          <mxGeometry relative="1" as="geometry">
            <mxPoint x="225.83999999999992" y="2785" as="targetPoint" />
          </mxGeometry>
        </mxCell>
        <mxCell id="07RU_dakuY-ybr0K6Tnr-231" value="左键点击保存按键" style="rounded=1;whiteSpace=wrap;html=1;fontSize=12;glass=0;strokeWidth=1;shadow=0;" vertex="1" parent="WIyWlLk6GJQsqaUBKTNV-1">
          <mxGeometry x="172.13" y="2706" width="107.91" height="37" as="geometry" />
        </mxCell>
        <mxCell id="07RU_dakuY-ybr0K6Tnr-232" value="结束" style="rounded=1;whiteSpace=wrap;html=1;fontSize=12;glass=0;strokeWidth=1;shadow=0;" vertex="1" parent="WIyWlLk6GJQsqaUBKTNV-1">
          <mxGeometry x="201.09" y="2859" width="50" height="30" as="geometry" />
        </mxCell>
        <mxCell id="07RU_dakuY-ybr0K6Tnr-233" style="edgeStyle=orthogonalEdgeStyle;rounded=0;orthogonalLoop=1;jettySize=auto;html=1;entryX=0.5;entryY=0;entryDx=0;entryDy=0;" edge="1" parent="WIyWlLk6GJQsqaUBKTNV-1">
          <mxGeometry relative="1" as="geometry">
            <mxPoint x="226.08999999999992" y="2857.01" as="targetPoint" />
            <mxPoint x="225.8275862068965" y="2823.997586206897" as="sourcePoint" />
          </mxGeometry>
        </mxCell>
        <mxCell id="07RU_dakuY-ybr0K6Tnr-243" value="保存当前结果" style="whiteSpace=wrap;html=1;" vertex="1" parent="WIyWlLk6GJQsqaUBKTNV-1">
          <mxGeometry x="179.38" y="2783" width="92.91" height="41" as="geometry" />
        </mxCell>
        <mxCell id="07RU_dakuY-ybr0K6Tnr-247" style="edgeStyle=orthogonalEdgeStyle;rounded=0;orthogonalLoop=1;jettySize=auto;html=1;" edge="1" parent="WIyWlLk6GJQsqaUBKTNV-1" source="07RU_dakuY-ybr0K6Tnr-248" target="07RU_dakuY-ybr0K6Tnr-251">
          <mxGeometry relative="1" as="geometry">
            <mxPoint x="394.7099999999999" y="2785" as="targetPoint" />
          </mxGeometry>
        </mxCell>
        <mxCell id="07RU_dakuY-ybr0K6Tnr-248" value="左键点击截图按键" style="rounded=1;whiteSpace=wrap;html=1;fontSize=12;glass=0;strokeWidth=1;shadow=0;" vertex="1" parent="WIyWlLk6GJQsqaUBKTNV-1">
          <mxGeometry x="341" y="2706" width="107.91" height="37" as="geometry" />
        </mxCell>
        <mxCell id="07RU_dakuY-ybr0K6Tnr-249" value="结束" style="rounded=1;whiteSpace=wrap;html=1;fontSize=12;glass=0;strokeWidth=1;shadow=0;" vertex="1" parent="WIyWlLk6GJQsqaUBKTNV-1">
          <mxGeometry x="369.96000000000004" y="2859" width="50" height="30" as="geometry" />
        </mxCell>
        <mxCell id="07RU_dakuY-ybr0K6Tnr-250" style="edgeStyle=orthogonalEdgeStyle;rounded=0;orthogonalLoop=1;jettySize=auto;html=1;entryX=0.5;entryY=0;entryDx=0;entryDy=0;" edge="1" parent="WIyWlLk6GJQsqaUBKTNV-1">
          <mxGeometry relative="1" as="geometry">
            <mxPoint x="394.9599999999999" y="2857.01" as="targetPoint" />
            <mxPoint x="394.6975862068965" y="2823.997586206897" as="sourcePoint" />
          </mxGeometry>
        </mxCell>
        <mxCell id="07RU_dakuY-ybr0K6Tnr-251" value="截图并保存当前可视化结果" style="whiteSpace=wrap;html=1;" vertex="1" parent="WIyWlLk6GJQsqaUBKTNV-1">
          <mxGeometry x="348.25" y="2783" width="92.91" height="41" as="geometry" />
        </mxCell>
        <mxCell id="07RU_dakuY-ybr0K6Tnr-252" style="edgeStyle=orthogonalEdgeStyle;rounded=0;orthogonalLoop=1;jettySize=auto;html=1;" edge="1" parent="WIyWlLk6GJQsqaUBKTNV-1" source="07RU_dakuY-ybr0K6Tnr-253" target="07RU_dakuY-ybr0K6Tnr-256">
          <mxGeometry relative="1" as="geometry">
            <mxPoint x="574.8" y="2785" as="targetPoint" />
          </mxGeometry>
        </mxCell>
        <mxCell id="07RU_dakuY-ybr0K6Tnr-253" value="左键点击退出按键" style="rounded=1;whiteSpace=wrap;html=1;fontSize=12;glass=0;strokeWidth=1;shadow=0;" vertex="1" parent="WIyWlLk6GJQsqaUBKTNV-1">
          <mxGeometry x="521.09" y="2706" width="107.91" height="37" as="geometry" />
        </mxCell>
        <mxCell id="07RU_dakuY-ybr0K6Tnr-254" value="结束" style="rounded=1;whiteSpace=wrap;html=1;fontSize=12;glass=0;strokeWidth=1;shadow=0;" vertex="1" parent="WIyWlLk6GJQsqaUBKTNV-1">
          <mxGeometry x="550.0500000000001" y="2859" width="50" height="30" as="geometry" />
        </mxCell>
        <mxCell id="07RU_dakuY-ybr0K6Tnr-255" style="edgeStyle=orthogonalEdgeStyle;rounded=0;orthogonalLoop=1;jettySize=auto;html=1;entryX=0.5;entryY=0;entryDx=0;entryDy=0;" edge="1" parent="WIyWlLk6GJQsqaUBKTNV-1">
          <mxGeometry relative="1" as="geometry">
            <mxPoint x="575.0500000000001" y="2857.01" as="targetPoint" />
            <mxPoint x="574.7875862068967" y="2823.997586206897" as="sourcePoint" />
          </mxGeometry>
        </mxCell>
        <mxCell id="07RU_dakuY-ybr0K6Tnr-256" value="安全退出软件" style="whiteSpace=wrap;html=1;" vertex="1" parent="WIyWlLk6GJQsqaUBKTNV-1">
          <mxGeometry x="528.34" y="2783" width="92.91" height="41" as="geometry" />
        </mxCell>
      </root>
    </mxGraphModel>
  </diagram>
</mxfile>
